<mxfile host="app.diagrams.net" agent="Mozilla/5.0 (Windows NT 10.0; Win64; x64) AppleWebKit/537.36 (KHTML, like Gecko) Chrome/128.0.0.0 Safari/537.36 OPR/114.0.0.0" version="24.9.1">
  <diagram name="Page-1" id="QqtxcJ4bM-sEM9sOws3S">
    <mxGraphModel dx="2411" dy="1953" grid="1" gridSize="10" guides="1" tooltips="1" connect="1" arrows="1" fold="1" page="1" pageScale="1" pageWidth="850" pageHeight="1100" math="0" shadow="0">
      <root>
        <mxCell id="0" />
        <mxCell id="1" parent="0" />
        <mxCell id="Oy79rplcM8L5ZICgDbu4-3" value="" style="edgeStyle=orthogonalEdgeStyle;rounded=0;orthogonalLoop=1;jettySize=auto;html=1;" edge="1" parent="1" source="Oy79rplcM8L5ZICgDbu4-1" target="Oy79rplcM8L5ZICgDbu4-2">
          <mxGeometry relative="1" as="geometry" />
        </mxCell>
        <mxCell id="Oy79rplcM8L5ZICgDbu4-7" value="" style="edgeStyle=orthogonalEdgeStyle;rounded=0;orthogonalLoop=1;jettySize=auto;html=1;" edge="1" parent="1" source="Oy79rplcM8L5ZICgDbu4-1" target="Oy79rplcM8L5ZICgDbu4-6">
          <mxGeometry relative="1" as="geometry" />
        </mxCell>
        <mxCell id="Oy79rplcM8L5ZICgDbu4-11" value="" style="edgeStyle=orthogonalEdgeStyle;rounded=0;orthogonalLoop=1;jettySize=auto;html=1;" edge="1" parent="1" source="Oy79rplcM8L5ZICgDbu4-1" target="Oy79rplcM8L5ZICgDbu4-10">
          <mxGeometry relative="1" as="geometry" />
        </mxCell>
        <mxCell id="Oy79rplcM8L5ZICgDbu4-13" value="" style="edgeStyle=orthogonalEdgeStyle;rounded=0;orthogonalLoop=1;jettySize=auto;html=1;" edge="1" parent="1" source="Oy79rplcM8L5ZICgDbu4-1" target="Oy79rplcM8L5ZICgDbu4-12">
          <mxGeometry relative="1" as="geometry" />
        </mxCell>
        <mxCell id="Oy79rplcM8L5ZICgDbu4-28" style="edgeStyle=orthogonalEdgeStyle;rounded=0;orthogonalLoop=1;jettySize=auto;html=1;entryX=0.5;entryY=1;entryDx=0;entryDy=0;" edge="1" parent="1" source="Oy79rplcM8L5ZICgDbu4-1" target="Oy79rplcM8L5ZICgDbu4-2">
          <mxGeometry relative="1" as="geometry" />
        </mxCell>
        <mxCell id="Oy79rplcM8L5ZICgDbu4-1" value="Krymn" style="rounded=1;whiteSpace=wrap;html=1;" vertex="1" parent="1">
          <mxGeometry x="350" y="350" width="120" height="60" as="geometry" />
        </mxCell>
        <mxCell id="Oy79rplcM8L5ZICgDbu4-5" value="" style="edgeStyle=orthogonalEdgeStyle;rounded=0;orthogonalLoop=1;jettySize=auto;html=1;" edge="1" parent="1" source="Oy79rplcM8L5ZICgDbu4-2" target="Oy79rplcM8L5ZICgDbu4-4">
          <mxGeometry relative="1" as="geometry" />
        </mxCell>
        <mxCell id="Oy79rplcM8L5ZICgDbu4-29" style="edgeStyle=orthogonalEdgeStyle;rounded=0;orthogonalLoop=1;jettySize=auto;html=1;entryX=0.5;entryY=0;entryDx=0;entryDy=0;" edge="1" parent="1" source="Oy79rplcM8L5ZICgDbu4-2" target="Oy79rplcM8L5ZICgDbu4-1">
          <mxGeometry relative="1" as="geometry" />
        </mxCell>
        <mxCell id="Oy79rplcM8L5ZICgDbu4-2" value="Pultineer Entrance" style="rounded=1;whiteSpace=wrap;html=1;" vertex="1" parent="1">
          <mxGeometry x="350" y="210" width="120" height="60" as="geometry" />
        </mxCell>
        <mxCell id="Oy79rplcM8L5ZICgDbu4-19" value="" style="edgeStyle=orthogonalEdgeStyle;rounded=0;orthogonalLoop=1;jettySize=auto;html=1;" edge="1" parent="1" source="Oy79rplcM8L5ZICgDbu4-4" target="Oy79rplcM8L5ZICgDbu4-18">
          <mxGeometry relative="1" as="geometry" />
        </mxCell>
        <mxCell id="Oy79rplcM8L5ZICgDbu4-30" style="edgeStyle=orthogonalEdgeStyle;rounded=0;orthogonalLoop=1;jettySize=auto;html=1;entryX=0.5;entryY=0;entryDx=0;entryDy=0;" edge="1" parent="1" source="Oy79rplcM8L5ZICgDbu4-4" target="Oy79rplcM8L5ZICgDbu4-2">
          <mxGeometry relative="1" as="geometry" />
        </mxCell>
        <mxCell id="Oy79rplcM8L5ZICgDbu4-4" value="Shopping District" style="rounded=1;whiteSpace=wrap;html=1;" vertex="1" parent="1">
          <mxGeometry x="350" y="70" width="120" height="60" as="geometry" />
        </mxCell>
        <mxCell id="Oy79rplcM8L5ZICgDbu4-9" value="" style="edgeStyle=orthogonalEdgeStyle;rounded=0;orthogonalLoop=1;jettySize=auto;html=1;" edge="1" parent="1" source="Oy79rplcM8L5ZICgDbu4-6" target="Oy79rplcM8L5ZICgDbu4-8">
          <mxGeometry relative="1" as="geometry" />
        </mxCell>
        <mxCell id="Oy79rplcM8L5ZICgDbu4-27" style="edgeStyle=orthogonalEdgeStyle;rounded=0;orthogonalLoop=1;jettySize=auto;html=1;" edge="1" parent="1" source="Oy79rplcM8L5ZICgDbu4-6">
          <mxGeometry relative="1" as="geometry">
            <mxPoint x="470" y="380" as="targetPoint" />
          </mxGeometry>
        </mxCell>
        <mxCell id="Oy79rplcM8L5ZICgDbu4-6" value="Dark Forest" style="rounded=1;whiteSpace=wrap;html=1;" vertex="1" parent="1">
          <mxGeometry x="550" y="350" width="120" height="60" as="geometry" />
        </mxCell>
        <mxCell id="Oy79rplcM8L5ZICgDbu4-17" value="" style="edgeStyle=orthogonalEdgeStyle;rounded=0;orthogonalLoop=1;jettySize=auto;html=1;" edge="1" parent="1" source="Oy79rplcM8L5ZICgDbu4-8" target="Oy79rplcM8L5ZICgDbu4-16">
          <mxGeometry relative="1" as="geometry" />
        </mxCell>
        <mxCell id="Oy79rplcM8L5ZICgDbu4-21" value="" style="edgeStyle=orthogonalEdgeStyle;rounded=0;orthogonalLoop=1;jettySize=auto;html=1;" edge="1" parent="1" source="Oy79rplcM8L5ZICgDbu4-8" target="Oy79rplcM8L5ZICgDbu4-20">
          <mxGeometry relative="1" as="geometry" />
        </mxCell>
        <mxCell id="Oy79rplcM8L5ZICgDbu4-26" style="edgeStyle=orthogonalEdgeStyle;rounded=0;orthogonalLoop=1;jettySize=auto;html=1;entryX=1;entryY=0.5;entryDx=0;entryDy=0;" edge="1" parent="1" source="Oy79rplcM8L5ZICgDbu4-8" target="Oy79rplcM8L5ZICgDbu4-6">
          <mxGeometry relative="1" as="geometry" />
        </mxCell>
        <mxCell id="Oy79rplcM8L5ZICgDbu4-8" value="Forest Cottage" style="rounded=1;whiteSpace=wrap;html=1;" vertex="1" parent="1">
          <mxGeometry x="750" y="350" width="120" height="60" as="geometry" />
        </mxCell>
        <mxCell id="Oy79rplcM8L5ZICgDbu4-34" style="edgeStyle=orthogonalEdgeStyle;rounded=0;orthogonalLoop=1;jettySize=auto;html=1;entryX=0.5;entryY=1;entryDx=0;entryDy=0;" edge="1" parent="1" source="Oy79rplcM8L5ZICgDbu4-10" target="Oy79rplcM8L5ZICgDbu4-1">
          <mxGeometry relative="1" as="geometry" />
        </mxCell>
        <mxCell id="Oy79rplcM8L5ZICgDbu4-10" value="Badlands" style="rounded=1;whiteSpace=wrap;html=1;" vertex="1" parent="1">
          <mxGeometry x="350" y="490" width="120" height="60" as="geometry" />
        </mxCell>
        <mxCell id="Oy79rplcM8L5ZICgDbu4-15" value="" style="edgeStyle=orthogonalEdgeStyle;rounded=0;orthogonalLoop=1;jettySize=auto;html=1;" edge="1" parent="1" source="Oy79rplcM8L5ZICgDbu4-12" target="Oy79rplcM8L5ZICgDbu4-14">
          <mxGeometry relative="1" as="geometry" />
        </mxCell>
        <mxCell id="Oy79rplcM8L5ZICgDbu4-32" style="edgeStyle=orthogonalEdgeStyle;rounded=0;orthogonalLoop=1;jettySize=auto;html=1;entryX=0;entryY=0.5;entryDx=0;entryDy=0;" edge="1" parent="1" source="Oy79rplcM8L5ZICgDbu4-12" target="Oy79rplcM8L5ZICgDbu4-1">
          <mxGeometry relative="1" as="geometry" />
        </mxCell>
        <mxCell id="Oy79rplcM8L5ZICgDbu4-12" value="Heralds Hills" style="rounded=1;whiteSpace=wrap;html=1;" vertex="1" parent="1">
          <mxGeometry x="150" y="350" width="120" height="60" as="geometry" />
        </mxCell>
        <mxCell id="Oy79rplcM8L5ZICgDbu4-33" style="edgeStyle=orthogonalEdgeStyle;rounded=0;orthogonalLoop=1;jettySize=auto;html=1;entryX=0;entryY=0.5;entryDx=0;entryDy=0;" edge="1" parent="1" source="Oy79rplcM8L5ZICgDbu4-14" target="Oy79rplcM8L5ZICgDbu4-12">
          <mxGeometry relative="1" as="geometry" />
        </mxCell>
        <mxCell id="Oy79rplcM8L5ZICgDbu4-14" value="The Trials" style="rounded=1;whiteSpace=wrap;html=1;" vertex="1" parent="1">
          <mxGeometry x="-50" y="350" width="120" height="60" as="geometry" />
        </mxCell>
        <mxCell id="Oy79rplcM8L5ZICgDbu4-25" style="edgeStyle=orthogonalEdgeStyle;rounded=0;orthogonalLoop=1;jettySize=auto;html=1;entryX=1;entryY=0.5;entryDx=0;entryDy=0;" edge="1" parent="1" source="Oy79rplcM8L5ZICgDbu4-16" target="Oy79rplcM8L5ZICgDbu4-8">
          <mxGeometry relative="1" as="geometry" />
        </mxCell>
        <mxCell id="Oy79rplcM8L5ZICgDbu4-16" value="Darker Forest" style="rounded=1;whiteSpace=wrap;html=1;" vertex="1" parent="1">
          <mxGeometry x="950" y="350" width="120" height="60" as="geometry" />
        </mxCell>
        <mxCell id="Oy79rplcM8L5ZICgDbu4-31" style="edgeStyle=orthogonalEdgeStyle;rounded=0;orthogonalLoop=1;jettySize=auto;html=1;entryX=0.5;entryY=0;entryDx=0;entryDy=0;" edge="1" parent="1" source="Oy79rplcM8L5ZICgDbu4-18" target="Oy79rplcM8L5ZICgDbu4-4">
          <mxGeometry relative="1" as="geometry" />
        </mxCell>
        <mxCell id="Oy79rplcM8L5ZICgDbu4-18" value="Church District" style="rounded=1;whiteSpace=wrap;html=1;" vertex="1" parent="1">
          <mxGeometry x="350" y="-70" width="120" height="60" as="geometry" />
        </mxCell>
        <mxCell id="Oy79rplcM8L5ZICgDbu4-23" style="edgeStyle=orthogonalEdgeStyle;rounded=0;orthogonalLoop=1;jettySize=auto;html=1;entryX=1;entryY=0.5;entryDx=0;entryDy=0;" edge="1" parent="1" source="Oy79rplcM8L5ZICgDbu4-20" target="Oy79rplcM8L5ZICgDbu4-4">
          <mxGeometry relative="1" as="geometry">
            <Array as="points">
              <mxPoint x="640" y="100" />
              <mxPoint x="640" y="100" />
            </Array>
          </mxGeometry>
        </mxCell>
        <mxCell id="Oy79rplcM8L5ZICgDbu4-24" style="edgeStyle=orthogonalEdgeStyle;rounded=0;orthogonalLoop=1;jettySize=auto;html=1;entryX=0.5;entryY=0;entryDx=0;entryDy=0;" edge="1" parent="1" source="Oy79rplcM8L5ZICgDbu4-20" target="Oy79rplcM8L5ZICgDbu4-8">
          <mxGeometry relative="1" as="geometry" />
        </mxCell>
        <mxCell id="Oy79rplcM8L5ZICgDbu4-20" value="Cracked Castle Wall" style="rounded=1;whiteSpace=wrap;html=1;" vertex="1" parent="1">
          <mxGeometry x="750" y="70" width="120" height="60" as="geometry" />
        </mxCell>
        <mxCell id="Oy79rplcM8L5ZICgDbu4-35" value="" style="shape=flexArrow;endArrow=classic;html=1;rounded=0;entryX=0;entryY=0.5;entryDx=0;entryDy=0;" edge="1" parent="1" target="Oy79rplcM8L5ZICgDbu4-20">
          <mxGeometry width="50" height="50" relative="1" as="geometry">
            <mxPoint x="470" y="100" as="sourcePoint" />
            <mxPoint x="680" y="190" as="targetPoint" />
          </mxGeometry>
        </mxCell>
      </root>
    </mxGraphModel>
  </diagram>
</mxfile>
